{
    "accessors": {
        "accessors_0": {
            "bufferView": "bufferViews_4",
            "byteOffset": 12,
            "byteStride": 24,
            "componentType": 5126,
            "count": 24,
            "max": [
                1.0,
                1.0,
                1.0
            ],
            "min": [
                -1.0,
                -1.0,
                -1.0
            ],
            "type": "VEC3"
        },
        "accessors_1": {
            "bufferView": "bufferViews_4",
            "byteOffset": 0,
            "byteStride": 24,
            "componentType": 5126,
            "count": 24,
            "max": [
                0,
                1.3334089517593384,
                0
            ],
            "min": [
                -2.090487003326416,
                -0.6665909886360168,
                -2.612088918685913
            ],
            "type": "VEC3"
        },
        "accessors_10": {
            "bufferView": "bufferViews_0",
            "byteOffset": 0,
            "byteStride": 24,
            "componentType": 5126,
            "count": 24,
            "max": [
                1.0000004768371582,
                1.0000003576278687,
                1.0
            ],
            "min": [
                -1.0000003576278687,
                -1.0000005960464478,
                -1.0
            ],
            "type": "VEC3"
        },
        "accessors_11": {
            "bufferView": "bufferViews_2",
            "byteOffset": 0,
            "byteStride": 32,
            "componentType": 5126,
            "count": 24,
            "max": [
                1.0,
                1.0,
                1.0
            ],
            "min": [
                -1.0,
                -1.0,
                -1.0
            ],
            "type": "VEC3"
        },
        "accessors_12": {
            "bufferView": "bufferViews_6",
            "byteOffset": 0,
            "byteStride": 24,
            "componentType": 5126,
            "count": 24,
            "max": [
                1.0,
                1.0,
                1.0000009536743164
            ],
            "min": [
                -1.0,
                -1.0,
                -1.0
            ],
            "type": "VEC3"
        },
        "accessors_2": {
            "bufferView": "bufferViews_2",
            "byteOffset": 12,
            "byteStride": 32,
            "componentType": 5126,
            "count": 24,
            "max": [
                1.0,
                1.0,
                1.0
            ],
            "min": [
                -1.0,
                -1.0,
                -1.0
            ],
            "type": "VEC3"
        },
        "accessors_3": {
            "bufferView": "bufferViews_0",
            "byteOffset": 12,
            "byteStride": 24,
            "componentType": 5126,
            "count": 24,
            "max": [
                1.0,
                1.0,
                1.0
            ],
            "min": [
                -1.0,
                -1.0,
                -1.0
            ],
            "type": "VEC3"
        },
        "accessors_4": {
            "bufferView": "bufferViews_1",
            "byteOffset": 0,
            "byteStride": 2,
            "componentType": 5123,
            "count": 36,
            "max": [
                23
            ],
            "min": [
                0
            ],
            "type": "SCALAR"
        },
        "accessors_5": {
            "bufferView": "bufferViews_7",
            "byteOffset": 0,
            "byteStride": 2,
            "componentType": 5123,
            "count": 36,
            "max": [
                23
            ],
            "min": [
                0
            ],
            "type": "SCALAR"
        },
        "accessors_6": {
            "bufferView": "bufferViews_6",
            "byteOffset": 12,
            "byteStride": 24,
            "componentType": 5126,
            "count": 24,
            "max": [
                1.0,
                1.0,
                1.0
            ],
            "min": [
                -1.0,
                -1.0,
                -1.0
            ],
            "type": "VEC3"
        },
        "accessors_7": {
            "bufferView": "bufferViews_5",
            "byteOffset": 0,
            "byteStride": 2,
            "componentType": 5123,
            "count": 36,
            "max": [
                23
            ],
            "min": [
                0
            ],
            "type": "SCALAR"
        },
        "accessors_8": {
            "bufferView": "bufferViews_3",
            "byteOffset": 0,
            "byteStride": 2,
            "componentType": 5123,
            "count": 36,
            "max": [
                23
            ],
            "min": [
                0
            ],
            "type": "SCALAR"
        },
        "accessors_9": {
            "bufferView": "bufferViews_2",
            "byteOffset": 24,
            "byteStride": 32,
            "componentType": 5126,
            "count": 24,
            "max": [
                0.9862384796142578,
                0.9862385364249349
            ],
            "min": [
                0.013761463575065136,
                0.013761460781097412
            ],
            "type": "VEC2"
        }
    },
    "asset": {
        "profile": {
            "api": "WebGL",
            "version": "1.0.3"
        },
        "version": "1.0"
    },
    "bufferViews": {
        "bufferViews_0": {
            "buffer": "buffers_0",
            "byteLength": 576,
            "byteOffset": 0,
            "target": 34962
        },
        "bufferViews_1": {
            "buffer": "buffers_0",
            "byteLength": 72,
            "byteOffset": 576,
            "target": 34963
        },
        "bufferViews_2": {
            "buffer": "buffers_0",
            "byteLength": 768,
            "byteOffset": 648,
            "target": 34962
        },
        "bufferViews_3": {
            "buffer": "buffers_0",
            "byteLength": 72,
            "byteOffset": 1416,
            "target": 34963
        },
        "bufferViews_4": {
            "buffer": "buffers_0",
            "byteLength": 576,
            "byteOffset": 1488,
            "target": 34962
        },
        "bufferViews_5": {
            "buffer": "buffers_0",
            "byteLength": 72,
            "byteOffset": 2064,
            "target": 34963
        },
        "bufferViews_6": {
            "buffer": "buffers_0",
            "byteLength": 576,
            "byteOffset": 2136,
            "target": 34962
        },
        "bufferViews_7": {
            "buffer": "buffers_0",
            "byteLength": 72,
            "byteOffset": 2712,
            "target": 34963
        }
    },
    "buffers": {
        "buffers_0": {
            "byteLength": 2784,
            "type": "arraybuffer",
            "uri": "buffer_combined.bin"
        }
    },
    "cameras": {
        "cameras_0": {
            "name": "Camera",
            "perspective": {
                "aspectRatio": 1.703595982340029,
                "yfov": 0.5033799409866333,
                "zfar": 100.0,
                "znear": 0.10000000149011612
            },
            "type": "perspective"
        }
    },
    "extensions": {
        "KHR_materials_common": {
            "lights": {
                "lights_0": {
                    "name": "Lamp",
                    "point": {
                        "color": [
                            1.0,
                            1.0,
                            1.0
                        ],
                        "constantAttenuation": 1,
                        "linearAttenuation": 0,
                        "quadraticAttenuation": 0.03333335240683057
                    },
                    "type": "point"
                }
            }
        }
    },
    "extensionsUsed": [
        "KHR_materials_common"
    ],
    "glExtensionsUsed": [],
    "materials": {
        "materials_0": {
            "extensions": {
                "KHR_materials_common": {
                    "technique": "PHONG",
                    "values": {
                        "ambient": [
                            1.0,
                            1.0,
                            1.0,
                            1.0
                        ],
                        "diffuse": [
                            0.0,
                            0.014271534979343414,
                            0.64000004529953,
                            1.0
                        ],
                        "doubleSided": false,
                        "emission": [
                            0.0,
                            0.0,
                            0.0,
                            1.0
                        ],
                        "shininess": 50,
                        "specular": [
                            0.5,
                            0.5,
                            0.5,
                            1.0
                        ],
                        "transparency": 1.0,
                        "transparent": false
                    }
                }
            },
            "name": "Material"
        },
        "materials_1": {
            "extensions": {
                "KHR_materials_common": {
                    "technique": "PHONG",
                    "values": {
                        "ambient": [
                            1.0,
                            1.0,
                            1.0,
                            1.0
                        ],
                        "diffuse": [
                            0.64000004529953,
                            0.64000004529953,
                            0.64000004529953,
                            1.0
                        ],
                        "doubleSided": false,
                        "emission": [
                            0.0,
                            0.0,
                            0.0,
                            1.0
                        ],
                        "shininess": 50,
                        "specular": [
                            0.5,
                            0.5,
                            0.5,
                            1.0
                        ],
                        "transparency": 1.0,
                        "transparent": false
                    }
                }
            },
            "name": "Material.003"
        },
        "materials_2": {
            "extensions": {
                "KHR_materials_common": {
                    "technique": "PHONG",
                    "values": {
                        "ambient": [
                            1.0,
                            1.0,
                            1.0,
                            1.0
                        ],
                        "diffuse": [
                            0.6399999856948853,
                            0.6399999856948853,
                            0.6399999856948853,
                            1.0
                        ],
                        "doubleSided": false,
                        "emission": [
                            0.0,
                            0.0,
                            0.0,
                            1.0
                        ],
                        "shininess": 49,
                        "specular": [
                            0.5,
                            0.5,
                            0.5,
                            1.0
                        ],
                        "transparency": 1.0,
                        "transparent": true
                    }
                }
            },
            "name": "Material.005"
        },
        "materials_3": {
            "extensions": {
                "KHR_materials_common": {
                    "technique": "PHONG",
                    "values": {
                        "ambient": [
                            1.0,
                            1.0,
                            1.0,
                            1.0
                        ],
                        "diffuse": [
                            0.0,
                            0.014271999709308147,
                            0.6399999856948853,
                            1.0
                        ],
                        "doubleSided": false,
                        "emission": [
                            0.0,
                            0.0,
                            0.0,
                            1.0
                        ],
                        "shininess": 49,
                        "specular": [
                            0.5,
                            0.5,
                            0.5,
                            1.0
                        ],
                        "transparency": 1.0,
                        "transparent": true
                    }
                }
            },
            "name": "Material.004"
        }
    },
    "meshes": {
        "meshes_0": {
            "name": "Cube",
            "primitives": [
                {
                    "attributes": {
                        "NORMAL": "accessors_3",
                        "POSITION": "accessors_10"
                    },
                    "indices": "accessors_4",
                    "material": "materials_0",
                    "mode": 4
                }
            ]
        },
        "meshes_1": {
            "name": "Cube.001",
            "primitives": [
                {
                    "attributes": {
                        "NORMAL": "accessors_2",
                        "POSITION": "accessors_11",
                        "TEXCOORD_0": "accessors_9"
                    },
                    "indices": "accessors_8",
                    "material": "materials_1",
                    "mode": 4
                }
            ]
        },
        "meshes_2": {
            "name": "Cube.001_Cube.001_Material.003",
            "primitives": [
                {
                    "attributes": {
                        "NORMAL": "accessors_0",
                        "POSITION": "accessors_1"
                    },
                    "indices": "accessors_7",
                    "material": "materials_2",
                    "mode": 4
                }
            ]
        },
        "meshes_3": {
            "name": "Cube_Cube_Material",
            "primitives": [
                {
                    "attributes": {
                        "NORMAL": "accessors_6",
                        "POSITION": "accessors_12"
                    },
                    "indices": "accessors_5",
                    "material": "materials_3",
                    "mode": 4
                }
            ]
        }
    },
    "nodes": {
        "nodes_0": {
            "camera": "cameras_0",
            "children": [],
            "name": "Camera",
            "rotation": [
                0.483536034822464,
                0.20870360732078552,
                0.33687159419059753,
                0.7804827094078064
            ],
            "scale": [
                1.0,
                1.0,
                1.0
            ],
            "translation": [
                7.481131553649902,
                -6.5076398849487305,
                5.34366512298584
            ]
        },
        "nodes_1": {
            "children": [],
            "meshes": [
                "meshes_0"
            ],
            "name": "Cube",
            "rotation": [
                0.0,
                0.0,
                0.0,
                1.0
            ],
            "scale": [
                1.0,
                1.0,
                1.0
            ],
            "translation": [
                0.0,
                0.0,
                0.0
            ]
        },
        "nodes_2": {
            "children": [],
            "meshes": [
                "meshes_1"
            ],
            "name": "Cube.001",
            "rotation": [
                0.0,
                0.0,
                0.0,
                1.0
            ],
            "scale": [
                1.0,
                1.0,
                1.0
            ],
            "translation": [
                -1.0904865264892578,
                1.6120893955230713,
                0.33340930938720703
            ]
        },
        "nodes_3": {
            "children": [],
            "meshes": [
                "meshes_2"
            ],
            "name": "Cube.001_Cube.001_Material.003",
            "rotation": [
                0.7071068286895752,
                0.0,
                0.0,
                0.7071067094802856
            ],
            "scale": [
                1.0,
                1.0,
                1.0
            ],
            "translation": [
                -2.858211040496826,
                0.0,
                0.0
            ]
        },
        "nodes_4": {
            "children": [],
            "meshes": [
                "meshes_3"
            ],
            "name": "Cube_Cube_Material",
            "rotation": [
                0.7071068286895752,
                0.0,
                0.0,
                0.7071067094802856
            ],
            "scale": [
                1.0,
                1.0,
                1.0
            ],
            "translation": [
                -2.858211040496826,
                0.0,
                0.0
            ]
        },
        "nodes_5": {
            "children": [],
            "extensions": {
                "KHR_materials_common": {
                    "light": "lights_0"
                }
            },
            "name": "Lamp",
            "rotation": [
                0.16907575726509094,
                0.27217137813568115,
                0.7558802962303162,
                0.570947527885437
            ],
            "scale": [
                1.0,
                0.9999999403953552,
                1.0
            ],
            "translation": [
                4.076245307922363,
                1.0054539442062378,
                5.903861999511719
            ]
        }
    },
    "samplers": {
        "samplers_0": {}
    },
    "scene": "scenes_0",
    "scenes": {
        "scenes_0": {
            "extras": {
                "active_camera": "cameras_0",
                "background_color": [
                    0.05087608844041824,
                    0.05087608844041824,
                    0.05087608844041824
                ],
                "frames_per_second": 24
            },
            "name": "Scene",
            "nodes": [
                "nodes_4",
                "nodes_3",
                "nodes_2",
                "nodes_1",
                "nodes_5",
                "nodes_0"
            ]
        }
    }
}
