{"accessors":[{"bufferView":2,"componentType":5126,"count":4654,"max":[4.79010009765625,1.6961499452590942,21.704130172729492],"min":[-4.79010009765625,-1.7519299983978271,0.076559998095035553],"type":"VEC3"},{"bufferView":2,"byteOffset":55848,"componentType":5126,"count":4654,"max":[0.99990814924240112,0.9999879002571106,0.99845647811889648],"min":[-0.99990814924240112,-0.99998265504837036,-0.99952405691146851],"type":"VEC3"},{"bufferView":2,"byteOffset":111696,"componentType":5126,"count":4654,"max":[1,1,1],"min":[0.99607998132705688,0.99607998132705688,0.99607998132705688],"type":"VEC3"},{"bufferView":1,"componentType":5126,"count":4654,"max":[0.9940599799156189,0.99106001853942871],"min":[0.0059400000609457493,0.0059400000609457493],"type":"VEC2"},{"bufferView":3,"componentType":5126,"count":4654,"max":[0.99990147352218628,0.99995487928390503,0.9999879002571106,1],"min":[-0.99989551305770874,-0.99952405691146851,-0.99966037273406982,-1],"type":"VEC4"},{"bufferView":0,"componentType":5125,"count":15048,"max":[4653],"min":[0],"type":"SCALAR"},{"bufferView":2,"byteOffset":167544,"componentType":5126,"count":1321,"max":[4.8815898895263672,21.359659194946289,1.7942299842834473],"min":[-0.01384000014513731,0.0078099998645484447,-1.7787799835205078],"type":"VEC3"},{"bufferView":2,"byteOffset":183396,"componentType":5126,"count":1321,"max":[0.99969422817230225,0.99981337785720825,0.99981820583343506],"min":[-0.99831414222717285,-0.99951237440109253,-0.99998432397842407],"type":"VEC3"},{"bufferView":1,"byteOffset":37232,"componentType":5126,"count":1321,"max":[0.99320000410079956,0.99716001749038696],"min":[0.0028399999719113111,0.0028399999719113111],"type":"VEC2"},{"bufferView":3,"byteOffset":74464,"componentType":5126,"count":1321,"max":[0.99888855218887329,0.99756342172622681,0.99295270442962646,1],"min":[-0.99937570095062256,-0.99999237060546875,-0.99919402599334717,-1],"type":"VEC4"},{"bufferView":0,"byteOffset":60192,"componentType":5125,"count":5250,"max":[1320],"min":[0],"type":"SCALAR"},{"bufferView":2,"byteOffset":199248,"componentType":5126,"count":4654,"max":[4.79010009765625,1.6961499452590942,21.704130172729492],"min":[-4.79010009765625,-1.7519299983978271,0.076559998095035553],"type":"VEC3"},{"bufferView":2,"byteOffset":255096,"componentType":5126,"count":4654,"max":[0.99990814924240112,0.9999879002571106,0.99845647811889648],"min":[-0.99990814924240112,-0.99998265504837036,-0.99952405691146851],"type":"VEC3"},{"bufferView":2,"byteOffset":310944,"componentType":5126,"count":4654,"max":[1,1,1],"min":[0.99607998132705688,0.99607998132705688,0.99607998132705688],"type":"VEC3"},{"bufferView":1,"byteOffset":47800,"componentType":5126,"count":4654,"max":[0.9940599799156189,0.99106001853942871],"min":[0.0059400000609457493,0.0059400000609457493],"type":"VEC2"},{"bufferView":3,"byteOffset":95600,"componentType":5126,"count":4654,"max":[0.99990147352218628,0.99995487928390503,0.9999879002571106,1],"min":[-0.99989551305770874,-0.99952405691146851,-0.99966037273406982,-1],"type":"VEC4"},{"bufferView":0,"byteOffset":81192,"componentType":5125,"count":15048,"max":[4653],"min":[0],"type":"SCALAR"},{"bufferView":2,"byteOffset":366792,"componentType":5126,"count":2591,"max":[4.8815898895263672,21.359659194946289,1.7942299842834473],"min":[-4.8815898895263672,0.0078099998645484447,-1.7787799835205078],"type":"VEC3"},{"bufferView":2,"byteOffset":397884,"componentType":5126,"count":2591,"max":[0.99969422817230225,0.99981337785720825,0.99981820583343506],"min":[-0.99969422817230225,-0.99951237440109253,-0.99998432397842407],"type":"VEC3"},{"bufferView":1,"byteOffset":85032,"componentType":5126,"count":2591,"max":[0.99320000410079956,0.99716001749038696],"min":[0.0028399999719113111,0.0028399999719113111],"type":"VEC2"},{"bufferView":3,"byteOffset":170064,"componentType":5126,"count":2591,"max":[0.99937570095062256,0.99796015024185181,0.99069124460220337,1],"min":[-0.99937570095062256,-0.99999243021011353,-0.99919402599334717,-1],"type":"VEC4"},{"bufferView":0,"byteOffset":141384,"componentType":5125,"count":10500,"max":[2590],"min":[0],"type":"SCALAR"},{"bufferView":2,"byteOffset":428976,"componentType":5126,"count":916,"max":[2.662100076675415,1.6961499452590942,21.704130172729492],"min":[-2.662100076675415,-1.4638700485229492,15.276240348815918],"type":"VEC3"},{"bufferView":2,"byteOffset":439968,"componentType":5126,"count":916,"max":[0.99858647584915161,0.99972313642501831,0.99845647811889648],"min":[-0.99858647584915161,-0.99998265504837036,-0.99952405691146851],"type":"VEC3"},{"bufferView":2,"byteOffset":450960,"componentType":5126,"count":916,"max":[1,1,1],"min":[0.99607998132705688,0.99607998132705688,0.99607998132705688],"type":"VEC3"},{"bufferView":1,"byteOffset":105760,"componentType":5126,"count":916,"max":[0.98773002624511719,0.98558998107910156],"min":[0.0059400000609457493,0.0059400000609457493],"type":"VEC2"},{"bufferView":3,"byteOffset":211520,"componentType":5126,"count":916,"max":[0.99990147352218628,0.99747967720031738,0.99872857332229614,1],"min":[-0.99989551305770874,-0.99952405691146851,-0.9952690601348877,-1],"type":"VEC4"},{"bufferView":0,"byteOffset":183384,"componentType":5125,"count":3390,"max":[915],"min":[0],"type":"SCALAR"}],"asset":{"generator":"Sketchfab (OSG glTF plugin)","version":"2.0"},"bufferViews":[{"buffer":0,"byteLength":196944,"byteOffset":0,"name":"ScalarBufferView","target":34962},{"buffer":0,"byteLength":113088,"byteOffset":196944,"byteStride":8,"name":"Vec2BufferView","target":34962},{"buffer":0,"byteLength":461952,"byteOffset":310032,"byteStride":12,"name":"Vec3BufferView","target":34962},{"buffer":0,"byteLength":226176,"byteOffset":771984,"byteStride":16,"name":"Vec4BufferView","target":34962}],"buffers":[{"byteLength":998160,"uri":"scene.bin"}],"images":[{"uri":"textures\/miesnie_baseColor.png"},{"uri":"textures\/miesnie_metallicRoughness.png"},{"uri":"textures\/szkielet_baseColor.jpeg"}],"materials":[{"doubleSided":true,"emissiveFactor":[0,0,0],"name":"szkielet","pbrMetallicRoughness":{"baseColorFactor":[1,1,1,1],"baseColorTexture":{"index":2,"texCoord":0},"metallicFactor":0,"roughnessFactor":0.59999999999999998}},{"doubleSided":true,"emissiveFactor":[0,0,0],"name":"miesnie","occlusionTexture":{"index":1,"strength":0.12,"texCoord":0},"pbrMetallicRoughness":{"baseColorFactor":[1,1,1,1],"baseColorTexture":{"index":0,"texCoord":0},"metallicFactor":0,"roughnessFactor":0.59999999999999998}}],"meshes":[{"name":"GeodeCube.002","primitives":[{"attributes":{"COLOR_0":2,"NORMAL":1,"POSITION":0,"TANGENT":4,"TEXCOORD_0":3},"indices":5,"material":0,"mode":4}]},{"name":"GeodePlane.001","primitives":[{"attributes":{"NORMAL":7,"POSITION":6,"TANGENT":9,"TEXCOORD_0":8},"indices":10,"material":1,"mode":4}]},{"name":"GeodeCube.000","primitives":[{"attributes":{"COLOR_0":13,"NORMAL":12,"POSITION":11,"TANGENT":15,"TEXCOORD_0":14},"indices":16,"material":0,"mode":4}]},{"name":"GeodePlane.000","primitives":[{"attributes":{"NORMAL":18,"POSITION":17,"TANGENT":20,"TEXCOORD_0":19},"indices":21,"material":1,"mode":4}]},{"name":"GeodeCube.001","primitives":[{"attributes":{"COLOR_0":24,"NORMAL":23,"POSITION":22,"TANGENT":26,"TEXCOORD_0":25},"indices":27,"material":0,"mode":4}]}],"nodes":[{"children":[1],"name":"RootNode (gltf orientation matrix)","rotation":[-0.70710678118654746,-0,-0,0.70710678118654757]},{"children":[2],"name":"RootNode (model correction matrix)"},{"children":[3,5,7,9,11],"name":"Root"},{"children":[4],"name":"szkielet"},{"mesh":0,"name":"GeodeCube.002"},{"children":[6],"matrix":[1,0,0,0,0,-0,1,0,0,-1,-0,0,0,0,-0,1],"name":"miesnie"},{"mesh":1,"name":"GeodePlane.001"},{"children":[8],"matrix":[1,0,0,0,0,1,0,0,0,0,1,0,-10.71209,0,0,1],"name":"szkielet_oryginal"},{"mesh":2,"name":"GeodeCube.000"},{"children":[10],"matrix":[1,0,0,0,0,-0,1,0,0,-1,-0,0,11.122249999999999,0,-0,1],"name":"miesnie_2"},{"mesh":3,"name":"GeodePlane.000"},{"children":[12],"matrix":[1,0,0,0,0,1,0,0,0,0,1,0,11.122249999999999,0,-0,1],"name":"szkielet_3"},{"mesh":4,"name":"GeodeCube.001"}],"samplers":[{"magFilter":9729,"minFilter":9987,"wrapS":10497,"wrapT":10497}],"scene":0,"scenes":[{"name":"OSG_Scene","nodes":[0]}],"textures":[{"sampler":0,"source":0},{"sampler":0,"source":1},{"sampler":0,"source":2}]}
