{"accessors":[{"bufferView":2,"componentType":5126,"count":65532,"max":[0.60682499408721924,0.99359297752380371,0.65839600563049316],"min":[-0.72941499948501587,-0.80112200975418091,-0.20657500624656677],"type":"VEC3"},{"bufferView":2,"byteOffset":786384,"componentType":5126,"count":65532,"max":[0.99997848272323608,0.99996209144592285,0.999958336353302],"min":[-0.9999348521232605,-0.99995851516723633,-0.99967533349990845],"type":"VEC3"},{"bufferView":1,"componentType":5126,"count":65532,"max":[0.97341102361679077,0.99481701850891113],"min":[0.0040219998918473721,0.0035910001024603844],"type":"VEC2"},{"bufferView":3,"componentType":5126,"count":65532,"max":[0.9999995231628418,0.99997627735137939,0.99999463558197021,1],"min":[-0.99989622831344604,-0.99933958053588867,-0.99999254941940308,-1],"type":"VEC4"},{"bufferView":0,"componentType":5125,"count":65532,"max":[65531],"min":[0],"type":"SCALAR"},{"bufferView":2,"byteOffset":1572768,"componentType":5126,"count":56976,"max":[0.76979702711105347,0.65552902221679688,0.64962202310562134],"min":[-0.73122400045394897,-0.81348800659179688,-0.21048100292682648],"type":"VEC3"},{"bufferView":2,"byteOffset":2256480,"componentType":5126,"count":56976,"max":[0.9999346137046814,0.99982678890228271,0.99966299533843994],"min":[-0.99995332956314087,-0.99964511394500732,-0.99985814094543457],"type":"VEC3"},{"bufferView":1,"byteOffset":524256,"componentType":5126,"count":56976,"max":[0.99434798955917358,0.99627500772476196],"min":[0.0041100000962615013,0.0060270000249147415],"type":"VEC2"},{"bufferView":3,"byteOffset":1048512,"componentType":5126,"count":56976,"max":[1,0.99996262788772583,0.99987941980361938,1],"min":[-0.99996769428253174,-0.99980622529983521,-0.99997955560684204,-1],"type":"VEC4"},{"bufferView":0,"byteOffset":262128,"componentType":5125,"count":56976,"max":[56975],"min":[0],"type":"SCALAR"}],"asset":{"generator":"Sketchfab (OSG glTF plugin)","version":"2.0"},"bufferViews":[{"buffer":0,"byteLength":490032,"byteOffset":0,"name":"ScalarBufferView","target":34962},{"buffer":0,"byteLength":980064,"byteOffset":490032,"byteStride":8,"name":"Vec2BufferView","target":34962},{"buffer":0,"byteLength":2940192,"byteOffset":1470096,"byteStride":12,"name":"Vec3BufferView","target":34962},{"buffer":0,"byteLength":1960128,"byteOffset":4410288,"byteStride":16,"name":"Vec4BufferView","target":34962}],"buffers":[{"byteLength":6370416,"uri":"scene.bin"}],"extensionsRequired":["KHR_materials_pbrSpecularGlossiness"],"extensionsUsed":["KHR_materials_pbrSpecularGlossiness"],"images":[{"uri":"textures\/Mandarine1:phong1SG_diffuse.jpeg"}],"materials":[{"doubleSided":true,"extensions":{"KHR_materials_pbrSpecularGlossiness":{"diffuseFactor":[1,1,1,1],"diffuseTexture":{"index":0,"texCoord":0},"glossinessFactor":0,"specularFactor":[0,0,0]}},"name":"Mandarine1:phong1SG"}],"meshes":[{"name":"Mandarine1:Mandarine","primitives":[{"attributes":{"NORMAL":1,"POSITION":0,"TANGENT":3,"TEXCOORD_0":2},"indices":4,"material":0,"mode":4},{"attributes":{"NORMAL":6,"POSITION":5,"TANGENT":8,"TEXCOORD_0":7},"indices":9,"material":0,"mode":4}]}],"nodes":[{"children":[1],"name":"RootNode (gltf orientation matrix)","rotation":[-0.70710678118654746,-0,-0,0.70710678118654757]},{"children":[2],"name":"RootNode (model correction matrix)"},{"children":[3],"name":"Mandarine.obj.cleaner"},{"mesh":0,"name":"Mandarine1:Mandarine"}],"samplers":[{"magFilter":9729,"minFilter":9987,"wrapS":10497,"wrapT":10497}],"scene":0,"scenes":[{"name":"OSG_Scene","nodes":[0]}],"textures":[{"sampler":0,"source":0}]}
